# xmcd
#
# Track frame offsets: 
#        150
#        13894
#        40520
#        65589
#        86087
#        100794
#        127757
#        141656
#        165677
#        186506
#        202684
#        215637
#        234791
#        253919
#        277810
#
# Disc length: 3927 seconds
#
# Revision: 0
# Processed by: cddbd v1.5.2PL0 Copyright (c) Steve Scherf et al.
# Submitted via: ExactAudioCopy v0.95a5
#
DISCID=d20f550f
DTITLE=Boz Scaggs - Hits!
DYEAR=1900
DGENRE=Funk
TTITLE0=What can I say
TTITLE1=JoJo
TTITLE2=Miss Sun
TTITLE3=Hard Times
TTITLE4=Slow Dancer
TTITLE5=Harbor Lights
TTITLE6=Dinah Flo
TTITLE7=Look what you've done to me
TTITLE8=Breakdown dead ahead
TTITLE9=You make it so  hard (to say no)
TTITLE10=it's over
TTITLE11=we're all alone
TTITLE12=heart of mine
TTITLE13=lowdown
TTITLE14=lido shuffle
EXTD=
EXTT0=
EXTT1=
EXTT2=
EXTT3=
EXTT4=
EXTT5=
EXTT6=
EXTT7=
EXTT8=
EXTT9=
EXTT10=
EXTT11=
EXTT12=
EXTT13=
EXTT14=
PLAYORDER=
